# xmcd
#
# Track frame offsets: 
#        150
#        10881
#        38841
#        63928
#        92393
#        123746
#        155606
#        186829
#        213957
#        239586
#        272956
#
# Disc length: 4084 seconds
#
# Revision: 0
# Processed by: cddbd v1.5.2PL0 Copyright (c) Steve Scherf et al.
# Submitted via: ExactAudioCopyFreeDBPlugin 1.0
#
DISCID=970ff20b
DTITLE=Young Fellaz Brass Band - The Assination of American Pop
DYEAR=2010
DGENRE=New Orleans Brass Band
TTITLE0=Intro
TTITLE1=Always There
TTITLE2=Bad Romance
TTITLE3=Caribbean Second Line
TTITLE4=Everybody
TTITLE5=Holla at My Dog
TTITLE6=Let's Stay Together
TTITLE7=Nothin' On You
TTITLE8=Ooh Nah Nae
TTITLE9=Used To Love You
TTITLE10=Valerie
EXTD=
EXTT0=
EXTT1=
EXTT2=
EXTT3=
EXTT4=
EXTT5=
EXTT6=
EXTT7=
EXTT8=
EXTT9=
EXTT10=
PLAYORDER=
